<svg width="20" height="20" viewBox="0 0 20 20" fill="none" xmlns="http://www.w3.org/2000/svg">
<g clip-path="url(#clip0_1_838)">
<path d="M3.33333 15V14.8333C3.33333 13.4332 3.33333 12.7331 3.60582 12.1984C3.8455 11.728 4.22795 11.3455 4.69836 11.1058C5.23314 10.8333 5.9332 10.8333 7.33333 10.8333H12.6667C14.0668 10.8333 14.7669 10.8333 15.3016 11.1058C15.772 11.3455 16.1545 11.728 16.3942 12.1984C16.6667 12.7331 16.6667 13.4332 16.6667 14.8333V15M10 15V6.66667M5 6.66667H15C15.7766 6.66667 16.1649 6.66667 16.4711 6.5398C16.8795 6.37064 17.204 6.04619 17.3731 5.63781C17.5 5.33152 17.5 4.94324 17.5 4.16667C17.5 3.3901 17.5 3.00181 17.3731 2.69553C17.204 2.28715 16.8795 1.96269 16.4711 1.79353C16.1649 1.66667 15.7766 1.66667 15 1.66667H5C4.22343 1.66667 3.83515 1.66667 3.52886 1.79353C3.12048 1.96269 2.79602 2.28715 2.62687 2.69553C2.5 3.00181 2.5 3.3901 2.5 4.16667C2.5 4.94324 2.5 5.33152 2.62687 5.63781C2.79602 6.04619 3.12048 6.37064 3.52886 6.5398C3.83515 6.66667 4.22343 6.66667 5 6.66667Z" stroke="#717680" stroke-width="1.66667" stroke-linecap="round" stroke-linejoin="round"/>
<rect x="1" y="15" width="4" height="4" rx="1" stroke="#717680" stroke-width="1.66667" stroke-linecap="round" stroke-linejoin="round"/>
<rect x="8" y="15" width="4" height="4" rx="1" stroke="#717680" stroke-width="1.66667" stroke-linecap="round" stroke-linejoin="round"/>
<rect x="15" y="15" width="4" height="4" rx="1" stroke="#717680" stroke-width="1.66667" stroke-linecap="round" stroke-linejoin="round"/>
</g>
<defs>
<clipPath id="clip0_1_838">
<rect width="20" height="20" fill="white"/>
</clipPath>
</defs>
</svg>
