<svg width="16" height="14" viewBox="0 0 16 14" fill="none" xmlns="http://www.w3.org/2000/svg">
<path d="M8.66671 3.66667H3.46671C2.71997 3.66667 2.3466 3.66667 2.06139 3.81199C1.8105 3.93982 1.60653 4.1438 1.4787 4.39468C1.33337 4.67989 1.33337 5.05326 1.33337 5.8V8.2C1.33337 8.94674 1.33337 9.3201 1.4787 9.60532C1.60653 9.8562 1.8105 10.0602 2.06139 10.188C2.3466 10.3333 2.71997 10.3333 3.46671 10.3333H8.66671M11.3334 3.66667H12.5334C13.2801 3.66667 13.6535 3.66667 13.9387 3.81199C14.1896 3.93982 14.3936 4.1438 14.5214 4.39468C14.6667 4.67989 14.6667 5.05326 14.6667 5.8V8.2C14.6667 8.94674 14.6667 9.3201 14.5214 9.60532C14.3936 9.8562 14.1896 10.0602 13.9387 10.188C13.6535 10.3333 13.2801 10.3333 12.5334 10.3333H11.3334M11.3334 13L11.3334 1M13 1.00001L9.66671 1M13 13L9.66671 13" stroke="#717680" stroke-width="1.33" stroke-linecap="round" stroke-linejoin="round"/>
</svg>
